<svg version="1.1" id="Layer_1" xmlns="http://www.w3.org/2000/svg" x="0" y="0" viewBox="0 0 141.73 141.73" xml:space="preserve">
  <style>
    .st1{fill:#90ab6e}.st3{fill:#92ad29}
  </style>
  <path d="M59.73 40.99c8.73-5.53 18.42-8.22 28.56-9.26 10.42-1.06 20.71.29 30.85 2.74 4.03.97 7.5 3.22 10.84 5.63 2.89 2.04 5.29 4.49 6.45 7.95.2.54.34 1.1.42 1.67.05.39.02.78-.05 1.17-.52 1.8-1.92 2.2-3.55 2.17-1.78-.04-3.54.13-5.26.5-3.38 1.28-7.22 1.24-10.11 4.03-1.29 1.24-3.47-.04-5.2.68-9.46 3.93-20.18 4.5-28.73 10.92-1.92 1.44-4.43 1.96-6.92 2.06-1.01.04-2.14-.14-2.94.62-2.21 2.09-4.54 1.97-7.03.6-3.16-1.74-3.14 2.2-4.98 2.83-4.61 2.57-4.68 1.71-6.72-2.65-1.9-4.06 2.14-7.68-.98-11.42.14.08-.07.15-.31.34-1.38 1.18-2.84 3.72-4.68 1.86-1.81-1.83.66-3.48 1.97-4.55 2.74-2.24 4.51-4.8 4.54-8.42.01-1.71 1.1-2.77 2.4-3.71 1.87-1.35 3.67-2.79 4.96-4.77-1.06-.76-3.03 1.72-3.53-.99z" fill="#6a8e21"/>
  <path class="st1" d="M56.54 100.28c-6.99 4.83-14.96 7.29-23.22 6.69-9.67-.7-17.1 3.23-24.21 8.76-1.51 1.17-2.89 2.51-4.33 3.77-.75-.05-1.53.29-2.29-.21C14.98 107.36 22.67 92.5 28.88 76.7c3.62-9.23 7.69-18.21 15.1-25.19 1.5-1.41 2.98-2.82 4.96-3.55 1.94-.22 3.05-1.76 4.49-2.79.81-.58 1.83-1.11 2.82-.29 1.09.9.88 1.89.3 3.07-1.2 2.43-2.41 4.8-4.63 6.48-1.72 1.3-2.27 3.37-3.37 5.08-3 4.66-4.49 10.06-7.3 14.8-.77 1.3-.73 2.64-.34 4.08.85 3.13.39 6.08-1.66 8.97 1.92-1.87 3.48-3.85 6.53-2.88 1.62.52 2.65-1.29 3.96-2.01 3.04-1.68 3.42-1.53 4.47 1.81.53 1.68 2 1.9 3.42 1.72 4.66-.59 9.38-.97 13.61-3.37.58-.12 1.14-.12 1.71.01 1.01.33 1.66.97 1.87 2.03.06.81-.23 1.57-.82 2.06-5.71 4.64-10.91 9.97-17.46 13.55z"/>
  <path d="M71.24 83.38c-6.16 4.02-12.7 4.91-19.67 2.57-.11-1.79 1.9-2.16 2.1-3.86-3.51.58-5.52 3.61-8.44 4.86-1-.43.83-2.29-.8-1.9-2.57.62-4.48 2.3-5.03 5.24-1.65-.95-1.96-2.09-.95-3.7 1.85-2.95 2.84-6.02.63-9.22-.63-.91-.01-1.39.3-2.04 3.16-6.51 6.32-13.02 9.46-19.54.41-.85 1.06-1.41 1.85-1.89 2.53-1.54 3.73-4.15 5.22-6.53.36-.58.64-1.14.13-1.73-.54-.62-1.22-.36-1.74-.01-.84.57-1.6 1.26-2.38 1.93-.91.78-1.79 1.59-2.96.41l.05-.04c.16-.31.39-.53.72-.66l.08-.08c.24-.59 1.1-.37 1.31-.99l-.04.04c.4-.12.65-.4.84-.76l-.03.02c.34-.15.57-.46.88-.64l.04-.02c.34-.54 1.09-.36 1.47-.83.41-.45 1.17-.28 1.5-.85l-.03.02c.29-.2.57-.39.86-.58.14-.15.32-.24.53-.26.41-.06.71-.32 1.01-.58.53-.26 1.05-.52 1.58-.77 2.57 1.12 3.99-1.79 6.63-1.72-1.61 3.28-3.59 6.39-6.64 7.86-3.11 1.5-3.22 4.39-3.03 6.31.22 2.23-.6 2.81-1.89 3.88-1.93 1.61-3.69 3.44-5.55 5.2 1.17 1.09 2 .82 2.48-.04.5-.9.84-1.92 1.88-2.3 1.02-.37 1.57-2.19 2.8-1.43 1.15.71.09 1.8-.32 2.69-.22.48-.17.99.15 1.45 1.9 2.68.77 4.74-1.72 6.58 2.17.22 2.96 1.22 2.7 3.02-.14 1-1.75 1.89-.28 3.01 1.27.97 2.42-.01 3.59-.34.24-.07.47-.21.7-.31.67.16 1.34.58 1.38 1.2.3 4.54 3.1 6.04 7.18 6.16.64.04 1.15.55 1.45 1.17z" fill="#77974a"/>
  <path class="st1" d="M54.28 44.01c-.32.57-.83.82-1.47.83.34-.54.82-.83 1.47-.83z"/>
  <path class="st1" d="M51.11 46.2c-.2.64-.68.91-1.31.99.23-.6.7-.89 1.31-.99z"/>
  <path class="st1" d="M55.78 43.16c-.31.62-.83.87-1.5.85.34-.56.85-.82 1.5-.85z"/>
  <path class="st1" d="M49.71 47.26l-.72.66c.25-.22.49-.44.72-.66z"/>
  <path class="st1" d="M51.91 45.48c-.28.25-.56.5-.84.76.28-.25.56-.51.84-.76z"/>
  <path class="st1" d="M52.77 44.86l-.88.64.88-.64z"/>
  <path class="st1" d="M56.61 42.6c-.29.19-.57.39-.86.58.15-.38.43-.59.86-.58z"/>
  <path class="st1" d="M58.15 41.77c-.34.19-.67.39-1.01.58.33-.2.67-.39 1.01-.58z"/>
  <path class="st3" d="M136.15 50.2c2.82 3.48 3.13 9.85.55 14.11-3.57 5.91-8.73 9.94-15.12 12.43-2.61 1.02-5.27 1.93-7.91 2.88-.72.49-1.69-.01-2.38.61-.49.05-.98.09-1.48.14-5.21 1.5-10.38 3.3-15.93 2.63a9.64 9.64 0 01-2.19-.6c-1.23-.49-3.15-.44-2.91-2.4.19-1.62 1.79-2.06 3.19-2.34 2.14-.42 4.15-1.33 6.69-1.71-1.03-1.7-1.78-3.37-1.53-5.35.54-4.35 3.75-6.91 8.08-5.9 2.26.53 3.89.17 5.56-1.39 2.93-2.75 7.2-3.87 9.23-7.79.53-1.02 1.96-.99 3.12-1.17 1.6-.24 3.38-.19 4.46-1.79 1.84-1.17 3.91-.99 5.87-.69 1.58.25 2.42-.11 2.7-1.67z"/>
  <path d="M127.58 52.57c.02 1.61-.79 2.43-2.38 2.22-3.19-.42-5.08 1.05-6.21 3.91-.26.67-.84 1.46-1.46 1.71-3.29 1.31-5.86 3.53-8.27 6.03-.82.85-1.76.55-2.8.08-3.24-1.45-6.37-.79-7.7 1.45-1.61 2.72-.54 6.28 2.68 8.55-4.1 1.07-8.11 2.12-12.28 3.22 1.08 1.89 2.78.87 3.68 1.84-.9 1.6-2.51 1.6-3.99 1.63-3.16.06-6.31.3-9.45.56-2.16-.43-4.35-.63-6.57-.44-.53.02-1.07.03-1.6.05-1.93-.78-3.94.11-5.99-.5-2.23-.66-3.25-1.76-3.24-3.95.01-1.41-.06-2.79-.77-4.06.63-1.83 3.18-2.44 2.77-5.17-.21-1.39 1.82-.93 2.07-.04.65 2.33 2.84 1.8 4.2 2.73.9.61 1.56.15 1.9-.53 1.06-2.1 2.47-2.22 4.72-1.86 2.49.39 4.95-.95 7.2-2.19 2.57-1.42 5.11-2.89 7.65-4.36 2.94-1.7 5.98-2.87 9.49-2.49 1.25.14 2.46.03 3.58-.94 3.06-2.64 6.94-2.78 10.7-3.11.73-.06 1.75.46 2.16-.22 2.35-3.81 6.72-2.53 9.91-4.12z" fill="#7ca035"/>
  <path class="st3" d="M135.45 48.64c.1.22.21.43.31.64-.24-.14-.34-.36-.31-.64z"/>
  <path d="M111.3 80.23c.68-.65 1.5-.73 2.38-.61-.67.73-1.51.75-2.38.61z" fill="#ccccb1"/>
  <path class="st3" d="M111.45 61.16c.81-1.6 1.49-2.59 3.04-2.18.16.04.37.43.33.59-.41 1.58-1.71 1.47-3.37 1.59z"/>
  <path class="st3" d="M100.54 64.31c-.11-.13-.25-.28-.38-.43.18-.15.35-.38.55-.42.2-.04.63.11.64.19.01.47-.41.53-.81.66z"/>
</svg>
