<svg version="1.1" id="Layer_1" xmlns="http://www.w3.org/2000/svg" x="0" y="0" viewBox="0 0 141.73 141.73" xml:space="preserve">
  <style>
    .st0{fill:#93ad7b}.st1{fill:#5a7622}.st2{fill:#7f9d5f}.st3{fill:#6d8833}
  </style>
  <path class="st0" d="M99.52 138.61c-2.13-.71-4.28-1.25-6.56-.81-2.7-6.37-7.16-11.55-11.37-16.9-.84-1.06-1.68-2.14-2.89-2.81-2.5-1.39-6.12-.26-7.64 2.54-.96 1.77-1.52 3.74-3.39 4.92-1.27.8-.75 2.17-.67 3.36.08 1.3.89 2.63-.14 3.89-5.54-3.31-8.63-8.64-11.11-14.24-4.29-9.69-10.06-18.35-17-26.29-1.16-1.32-2.4-2.61-3.02-4.32 2.5-2.31 2.5-2.31 5.76.01-2.73-2.92-3.77-6.48-4.15-10.04-.66-6.2-1.51-12.4-1.26-18.67.09-2.31.65-4.11 3.03-5.25 2.84-1.35 3.16-4.56 4.34-7.09.23-.49.3-1.05.5-1.55.48-1.19.52-3.21 2.12-3 1.74.23.94 2.21 1.16 3.46.05.27.06.54.09.81.18-3.44 1.59-4.44 4.18-2.78 2.54 1.64 4.36 3.97 5.98 6.55 3.81 6.08 5.02 13.18 7.99 19.58.63 1.36 1.02 2.88 2.11 3.92 3.48 3.31 4.98 7.69 6.69 11.94.21.21.02.66.41.81.05.02.15-.13.11-.17-.21-.16-.36-.35-.44-.63-.23-1.69.45-2.74 2.18-2.53 1.7.21 2.25 1.78 1.9 3.05-1.04 3.87 2.12 6.46 2.7 9.83.28 1.65 2.29 2.14 3.54 3.13.3.24.56.53.79.83 2.63 4.33 3.28 9.04 2.79 14-.19 1.91-.01 3.72 1.62 5.17.93.83 1.12 2.12 1.12 3.38 0 1.82 1 3.01 2.5 3.86 1.98 1.59 2.14 4.13 3.24 6.18.19.29.35.6.51.91.26.44.53.88.83 1.3.65 1.14 2.12 1.98 1.45 3.65z"/>
  <path class="st1" d="M111.62 116.43c-.65.4-1.49.14-1.86-.37-2.46-3.4-7.52-4.58-9.16-7.48-2.29-4.06-6.71-5.44-8.67-9.31-.37-.73-.96-1.56-1.75-1.61-3.91-.25-4.3-3.72-6.23-6-4.08-4.82-4.83-10.8-7-16.21-1.8-4.5-5.59-7.72-6.82-12.4-.13-.36-.23-.72-.3-1.09-.01-1.87-.57-3.62-1.34-5.3-.17-.32-.29-.66-.4-1-.68-2.13-1.99-3.66-4.22-4.3-.78-.7-1.15-1.56-1.03-2.61.09-.39.25-.74.49-1.06 4.74-.96 9.61 1.07 12.4 4.74 1.75 2.3 3.46 4.7 5.16 6.12-1.51-.5-1.47-3.3-3.57-4.29-.98-.46-1.35-1.33-.84-2.38.46-.94 1.29-1.34 2.3-1.45 1.55-.17 2.82.86 4.65 1.02 0-1.55-.61-3.31.91-4.46 1.53-1.16 3.09-.59 4.66-.11.91.28 2.06.75 2.71-.03 2.85-3.46 5.74-1.85 8.81.06.28-3.63.01-6.49-3.23-8.62-1.29-.84-2.31-1.05-3.67-1.03-1.88.03-3.36-1.02-4.75-2.11-1.42-1.11-2.61-2.1-1.26-4.38.68-1.16-1.54-1.38-2.46-1.99-2.22-1.47-5-2.56-3.63-6.14 8.48 2.42 15.14 7.6 20.68 14.21 4.26 5.08 7.44 10.9 10.37 16.84"/>
  <path class="st1" d="M113.24 101.92c-3.11.41-4.4 4-3 7.79.61 1.65 1.71 3.11 1.96 4.9"/>
  <path class="st1" d="M111.82 77.85c-.82-.91-1.56-1.95-1.98-3.08-2.21-5.9-6.84-9.24-12.23-11.91-.84 1.32-.15 2.7-.33 4.02-.32 2.25.01 3.78 3.02 3 1.89-.49 2.97 1.03 3.64 2.61.83 1.97.07 3.41-2.72 4.49 2.98.63 5.18.28 7.04 1.57 2.42 1.68 3.91 3.33 2.98 6.74"/>
  <path class="st2" d="M69.22 55.29c.02.26.06.52.1.77.41 1.94.98 3.83 1.56 5.72l.06.82c-.05 3.06 1.35 5.54 2.81 8.14 2.56 4.56 5.46 9.03 5.83 14.51.09 1.29 1.05 2.16 1.97 2.97 2.56 2.27 3.31 5.5 4.52 8.47.55 1.36.16 2.66-1.24 3.47-3.12-.82-6.1-1.78-5.56-5.97.11-.83-.39-1.09-.93-1.54-1.53-1.27-2.57-2.76-1.11-4.78.07-.1.13-.25.12-.38-.07-1.23.76-3.16-1.14-3.26-1.67-.09-1.01 1.81-1.21 2.9l.01-.01c-2.33-1.43-3.9-3.39-4.09-6.19-.08-1.22-.79-2.02-1.55-2.76-5.41-5.21-6.78-12.3-9.21-18.96-1.87-5.15-4.15-10.25-8.61-13.89-.82-.67-1.55-1.82-2.77-1.07-1.13.7-.75 1.96-.51 2.98.35 1.54.99 3.05.05 5.02-1.54-3.04-1.58-6.13-2.33-9.1-.45 3.75-2.48 6.86-3.75 10.26-.5 1.33-1.24 2.59-2.89 2.32-2.02-.34-1.92.97-1.91 2.2.08 8.66.11 17.32 2.8 25.7.84 2.61 2.82 4.58 3.72 7.15.26.73 1.02 1.33.21 2.45-1.54-.73-1.79-2.47-2.59-3.65-1.57-2.35-3.35-3.04-5.83-1.6-10.43-15.5-11.16-31.99-4.95-49.17 2.19 2.5 3.42 2.47 4.59-.59.89-2.32 1.95-4.44 3.53-6.33.67-.79 1.18-2.3 2.36-1.82 1.52.62 1.3 2.17.83 3.53.77-1.03.4-2.43 1.07-3.49 1.22-1.91 2.17-.86 3.17.4.62-2.64.07-5.03-.91-7.43-1.85-4.52-3.92-8.96-5.49-13.6-.41-1.23-.69-2.81-2.68-2.27-1.32-4.44-1.26-4.25 2.34-5.31 1.79-.53 2.56.09 3.22 1.4 3.55 7.16 9.03 12.04 16.78 14.25-.01 2.94-2.27 5.59-1.09 8.68-4.63 2.26-3.33 8.47-7.42 11.13-.55.36-.33 1.25.05 2.05.88-3.3 2.72-3.09 4.94-1.47 3.74 2.74 6.09 6.43 7.43 10.82.3.8.6 1.6.9 2.41 1.71 1.22 2.78 3.21 4.8 4.12z"/>
  <path class="st3" d="M112.91 125.41c-1.49-3.87-5.2-5.05-8.41-6.82-.61-.32-1.16-.75-1.83-.97-.32-.11-.62-.25-.92-.39-.88-.44-1.72-.96-2.51-1.55-.27-.18-.52-.38-.77-.58-.13-.09-.25-.19-.38-.29-.27-.17-.53-.36-.79-.55-.28-.17-.54-.36-.8-.56-.28-.18-.54-.39-.8-.6-.14-.1-.27-.21-.41-.3-.29-.19-.57-.4-.84-.62-.16-.09-.3-.18-.47-.27-5.78-1.79-6.83-7.26-9.16-11.74v-.02c.84-4.08-.93-7.37-3.53-10.13-1.67-1.77-2.51-3.65-3.09-5.96-1.18-4.73-3.16-9.21-5.97-13.19-1.87-2.66-2.7-5.22-1.3-8.27 1.32 2.68 3.85 4.84 4.88 7.31 1.75 4.18 4.8 8 4.87 12.81.02 1.7.28 2.94 1.92 4.09 1.89 1.32 2.62 3.62 3.23 5.95.48 1.82.94 4.73 4.28 2.87 1.1-.61 1.77.1 2.1 1.18.45 1.46 1.4 2.63 2.19 3.9 1 1.6 2.17 2.51 4 1.32.73-.47 1.39-.97 2.11-.13.51.6.27 1.24-.12 1.86-1.77 2.86-.07 4.88 2.31 5.19 3.69.47 5.25 2.79 6.82 5.49.33.56.86 1 1.29 1.5 1.11-.6.48-1.31.17-1.67"/>
  <path class="st3" d="M115.55 95.16c-5.09-.49-4.03-5.87-6.75-8.21-.71-.61-.08-1.72.91-2.31 2.07-1.22 1.02-2.93-.11-3.59-1.97-1.14-3.53-4.03-6.73-1.86-.98.67-3.04.01-3.28-2-.22-1.8.71-2.51 2.45-2.21.76.13 1.45.07 1.35-.89-.12-1.1-.71-2.05-1.45-2.87-.49-.54-1.11-.96-1.6-.07-.93 1.69-2.16 1.39-3.41.55-1.25-.85-1.78-2.11-1.29-3.57.63-1.89.96-3.67-.39-5.42-.59-.76-.4-1.57.39-2.11.76-.52 1.65-.5 2.26.14 3.16 3.28 7.87 4.58 10.58 8.44 1.98 2.82 2.61 6.4 5.83 9.7"/>
  <path class="st3" d="M110.99 114.26c-3.22-3.77-2.62-8.15-2.12-12.54.09-.83.23-1.42 1.11-1.11 1.38.48 2.61-.62 4.01-.15"/>
  <path d="M81.51 22.64c.52 2.6 1.89 4.29 4.56 5.16 2.14.69 4.34 1.63 5.48 3.97-1.25.68-2.68-1.06-3.92.61 1.2 1.77 3.26 2.58 5 3.73.69.45 1.75.54 2.25-.19 1.9-2.73 2.69-1.68 2.94.83.14 1.35.87 1.44 1.92 1.96 1.29.64 4.79 1.21 1.77 4.25-1.01 1.01.83 2.1 1.05 3.24.2 1.04.58 2.25-.59 2.94-1.03.61-1.75-.27-2.48-.86-.95-.76-1.87-1.57-2.9-2.2-1.17-.72-2.27-.84-2.9.84-.95 2.57-2.67 2.78-4.81 1.39-.34-.22-.73-.36-1.09-.54-1.15-.59-2.34-1-3.29.25-.81 1.07-.27 2.02.48 2.92.67.79 1.9 1.66 1 2.74-.93 1.11-1.95-.18-2.88-.54-1.39-.53-2.69-1.29-4.09-1.78-.84-.29-1.7.15-1.9 1.06-.19.87.59 1.06 1.27 1.19.98.18 2.06.54 1.99 1.66-.12 1.88.89 2.31 2.41 2.51 1.03.14 1.86.74 1.63 1.91-.17.88-.17 2.09-1.2 2.41-1.1.33-1.63-.73-2.2-1.46-1.4-1.82-2.91-3.58-4.14-5.51-3.11-4.89-8.15-6.13-13.28-7.27-2.32-3.59-4.38-7.27-4.21-11.74.04-1.1.34-2.61 1.59-2.41 2.49.41 1.91-1.29 1.73-2.33-.51-2.96 1.54-4.82 2.46-7.19 1.61-4.11 4.68-2.15 7.08-2.85l1.93-.57c2.59.14 5 .87 7.34 1.87z" fill="#476519"/>
  <path d="M66.85 132.8c-.56-1.73-.98-3.52-1.42-5.26-.65-2.56-.67-3.52 2.23-3.51 1.33 0 1.48-1.48 1.57-2.51.34-4.11 3.75-4.74 6.62-5.56 2.7-.78 4.5 1.29 6.11 3.21 3.13 3.73 5.48 8.09 9.12 11.41 2.22 2.02.76 4.95 1.88 7.22-6.89 3.48-13.41 1.12-19.86-1.37-2.25-.86-4.45-1.93-6.25-3.63z" fill="#8aab50"/>
  <path d="M37.26 7.18c.6-.95-.58-2.84 1.21-2.99 1.21-.11 1.53 1.42 1.86 2.4 2.07 6.18 4.74 12.1 7.28 18.09 1.42 3.33-.26 6.76-.76 10.33-2.2-1.35-.32-3.98-2.5-5.32-.47 3.3-2.6 5.68-3.93 8.51-.59-2.57 1.67-4.76.87-7.16-3.56 2.94-3.69 8.16-7.4 11.08-.7.55-.77 2.08-1.91 1.83-1.35-.3-1.05-1.68-1.1-2.73-.04-.81-.06-1.62-.1-2.43.79-3.19 2.21-6.18 3.77-9.01 3.98-7.23 4.09-14.79 2.71-22.6z" fill="#557529"/>
  <path d="M74.2 20.78c-.41 2.34-2.42 1.97-3.88 2.03-4.61.18-4.62.09-2.44 3.96-.58.89-1.4.61-2.17.43-.64-.14-1.27-.35-2.84-.8 3.58 3.54-1.53 7.88 3.15 10.74-2.96.51-2.79-3.26-5.41-2.6-.66 4.78 2.31 8.81 3.01 13.32l-.09.88c-1.19-.73-2-1.68-2.5-3.06-1.15-3.18-3.87-5.11-6.21-7.33-.68-.65-1.54-.89-2.19-.41-.87.64-.19 1.44.27 2.08.5.68.92 1.37.66 2.24-.22.72-.94 1.37-1.46.77-1.05-1.21-1.8-2.68-2.64-4.06-1.23-2.02.4-2.61 1.71-3.29 1.21-.63 2.04-1.63 1.73-2.92-.63-2.57 3.54-4.14.87-6.99 1.67-.08 3.14 1.83 3.99.18 1.11-2.15-1.95-2.07-2.58-3.87 2.5-.45 3.19-2.74 4.43-4.56 4.85 1.09 9.91 1.32 14.59 3.26z" fill="#618239"/>
  <path class="st0" d="M99.47 138.59c1.32-.04 1.94 1.2 2.98 1.66-1.91 1.08-2.28-.58-2.98-1.66z"/>
  <path class="st2" d="M92.87 125.51l.15 1.6c-3.01 0-2.86-2.57-3.45-4.43-.16-.49.68-1.39.06-1.86-4.75-3.62-2.02-8.68-2.49-13.1-.14-1.31-.55-2.24-1.17-3.3-.74-1.27-1.29-2.7-1.15-4.26 1.48 1.98 3.32 3.69 3.6 6.44.15 1.48 2.07 1.48 3.01 2.37 1.16 1.1 2.94 1.32 3.9 2.71-1.59 2.79-2.68 7.84-2.62 11.91.01.65-.28 1.31.16 1.92z"/>
  <path class="st2" d="M74.98 87.11c.09.05.18.1.28.15-.09-.05-.18-.11-.27-.16l-.01.01z"/>
  <path d="M96.33 134.48z" fill="#c8cbae"/>
  <path class="st3" d="M69.22 55.29c-3.93 1.32-3.77-2.1-4.8-4.14 4.18-1.62 3.39 2.53 4.8 4.14z"/>
  <path class="st3" d="M70.87 61.78c-1.04-1.77-2.41-3.44-1.56-5.72 1.29 1.7 1.67 3.64 1.56 5.72z"/>
  <path class="st0" d="M92.87 125.51c-.89-.76-.93-1.92-1.27-2.91-2.35-6.85-2.33-6.86 3.74-10.92l.09.02c.28.22.54.46.77.72l.06.06c.26.25.53.49.81.72.26.06.52.12.78.19.3.18.57.39.79.65l.09.08c.24.25.51.48.8.67.84.51 1.84.79 2.41 1.69-.97 3.12-3.64 4.51-6.19 5.97-1.29.75-2.67 1.33-2.88 3.06z"/>
  <path class="st0" d="M104.35 117.35c-.66.07-1.2-.13-1.61-.66.68-.13 1.22.08 1.61.66z"/>
  <path class="st2" d="M99.53 114.79c-.27-.22-.54-.45-.8-.67.26.22.53.45.8.67z"/>
  <path class="st2" d="M98.64 114.04c-.26-.22-.53-.44-.79-.65.26.22.52.43.79.65z"/>
  <path class="st2" d="M97.06 113.2l-.81-.72.81.72z"/>
  <path class="st2" d="M96.19 112.42c-.26-.24-.52-.48-.77-.72.26.24.52.48.77.72z"/>
</svg>
