<svg version="1.1" id="Layer_1" xmlns="http://www.w3.org/2000/svg" x="0" y="0" viewBox="0 0 141.73 141.73" xml:space="preserve">
  <style>
    .st0{fill:#6c8930}.st1{fill:#809e3c}.st2{fill:#88a523}.st3{fill:#afcb55}.st4{fill:#97b35a}.st5{fill:#aac475}
  </style>
  <path class="st0" d="M88.83 85.93c-5.81 7.29-11.87 14.32-18.84 20.59-7.7 6.93-16.13 12.51-25.71 16.4-2.35.96-4.61 2.15-6.92 3.24-.33.15-.63.34-.92.56-1.15.9-2.36 1.69-3.78 2.11-.2.23-.45.4-.73.51-.34.14-.67.28-1.01.42-2.77-1.37-.33-2.58.27-3.59 1.11-1.86 3.36-3 3.95-6.46-4.7 4.65-7.89.75-10.58-1.24-2.77-2.06-1.67-5.92-.53-8.9 1.23-3.25 1.78-6.38.52-9.69-.32-2.06.38-3.87 2.35-4.37 4.69-1.21 5.64-4.48 5.12-8.77.4 2.35-.76 3.9-2.3 5.29-2.87 2.59-3.88 2.39-6.11-1.21a6.86 6.86 0 01-.29-1.25c-.13-1.55.02-3.09.96-4.34 1.84-2.44 2.86-4.71 1.12-7.86-1.16-2.11.56-3.7 2.55-4.53 2.25-.95 4.64-1.31 7.08-1.37-.47-4.04 1.68-6.5 5.37-5.4 2.42.73 3.94.16 5.77-1.17 4.34-3.14 6.76-2.4 8.21 2.73.67 2.35 1.59 2.15 3.12 1.16 1.02-.66 1.81-1.6 2.7-2.42 2.48-2.31 5.2-3.81 8.69-4.48 4.75-.9 8.16-3.79 8.86-9 .02-.42.07-.84.14-1.25.36-1.43 1.05-2.71 1.89-3.91.23-.34.48-.67.75-.98.13-.16.27-.31.4-.47.42-.47.82-.94 1.32-1.33.36-.24.76-.38 1.18-.47.43-.03.85.02 1.27.12 3.82 1.66 4.96 4.43 3.91 8.47-.67 2.58 3.3 8.89 5.83 9.96 3.35 1.41 4.6 4.55 6.05 7.52-.01 3.51-2.37 5.8-4.55 7.96-2.44 2.41-4.61 5.08-7.11 7.42z"/>
  <path class="st1" d="M79.04 52.4c-.48 6.62-4.98 10.8-11.44 11.04-3.24.12-5.11 2.91-7.43 4.73-1.53 1.2-2.66 2.89-4.56 3.66-1.93.77-2.96.3-2.76-1.91.07-.74.44-1.48.4-2.21-.16-3.21-2.64-4.47-5.32-2.67-1.24.83-2.3 1.94-3.5 2.84-1.07.8-2.15 1.8-3.28-.1-1.37-2.29-2.83-.37-4.25.08-1.03.32-1.51 1-1.17 2.06.65 2.03 2.58.79 4.15 1.22-.8 1.76-1.22 2.93-3.39 2.03-2.98-1.25-5.87.21-8.66 1.11-2.01.65-2.66 2.26-.75 3.7 2.99 2.27 1.2 4.33-.26 6.07-1.44 1.71-2.61 3.29-2.3 5.61-3.69.43-4.34-2.53-5.33-4.94-.91-2.22-1.69-4.17-4.08-5.57-3.55-2.09-2.44-8.98 1.6-11.97 4.29-3.17 4.9-5.79 2.58-11.12 7.04-12.4 16.4-22.61 28.57-30.16.53-.06.88-.39 1.19-.78 3.89 2.02 7.57 9.07 6.64 12.77-.18.72-.92 1.18-.99 1.99.99.29 1.71-.48 2.57-.66 3.56-.78 4.75.25 4.4 3.97-.15 1.57-1.24 3.82 1.81 3.16 3.87-.83 5.86 1.63 7.17 4.23 1.28 2.52-1.92 3.27-3.19 4.78-.4.48-.67 1-.25 1.97 2.04-.42 3.42-2.04 5.09-3.09.32-.25.67-.45 1.03-.61 1.18-.54 2.69.02 3.74-1.05.3-.23.63-.41.99-.54.38-.06.71.06.98.36z"/>
  <path class="st2" d="M19.28 56.06c.73.15 1.73.04 2.14.48 2.37 2.61.71 9.6-2.57 11.24-3.97 1.99-5.13 4.35-4.32 8.69.14.76.16 1.63 1.17 1.55 3.46-.27 3.78 2.31 4.32 4.67.65 2.88 1.66 5.5 4.5 6.96.02.3.03.6.03.9 1.46 2.92-.64 6.18.86 9.09 2.38 2.81 1.8 5.78.57 8.85-1.67 4.16-1.63 4.17-1.15 9.47 2.15-.84 3.97-1.62 4.55 2.04.38 2.36 2.23.52 3.24-.43.93-.88 1.11-3.36 3.21-1.64 1.83 1.5 1.68 3.22.29 5.14-1.66 2.29-5.01 3.27-5.19 6.68-2.44 2.01-6.3 2.51-6.54 7.42-2.91-4.83-6.07-8.34-8.67-12.21-4.73-7.03-7.19-14.94-7.61-23.44-.66-5.85-.6-11.69-.05-17.54-.18-.89-.05-1.75.34-2.56.28-.61.22-1.32.59-1.9-.1-.32-.03-.59.21-.82.66-.79.01-1.93.73-2.7l.21-.95c.4-.52.22-1.27.7-1.77l.27-.95c.23-.35.42-.71.57-1.1-.08-.28 0-.51.23-.69.45-.52.27-1.31.79-1.79l-.01.02c.55-.49.4-1.33.89-1.85l-.01.02c.59-.45.38-1.32.91-1.8.12-.33.23-.66.35-.99.13-.33.3-.62.54-.88l.39-.93c.1-.33.29-.6.55-.82l.02-.03c.55-.45.34-1.31.95-1.73l.02-.05c.32-.38.67-.75.73-1.29-.05-.26.04-.46.28-.58.24-.36.53-.67.67-1.09-.04-.3.06-.53.3-.69z"/>
  <path class="st3" d="M113.62 11.55c-2.78 6.9-4.83 14.09-8.24 20.74-4.93-4.25-4.81-4.12-9.94.52-2.8 2.54-5.18 5.37-7.53 8.27-1.1 1.36-1.96 3.08-4.01 3.33-1.1-.3-1.89-.96-2.38-1.97.13-3.28-3.06-3.74-4.72-5.52-1.18-6.34-.28-12.88-1.89-19.18-.5-1.95-.22-3.88 1.36-5.4l-.01.03c.8-.71 1.99-.05 2.79-.79 7.3-1.43 14.64-1.51 21.99-.49 4.09.57 7.81.08 10.76-3.13 2.57.2 1.62 2.18 1.82 3.59z"/>
  <path class="st4" d="M77.24 36.95c.74.1 1.5.11 2.22.3 4.17 1.07 4.16 1.08 2.33 5.2-.02.2-.04.41-.05.61-1.97 3.05-5.24 4.98-7.01 8.19-.38.58-.77 1.24-1.4 1.52-1.98.88.24.98.24 1.47-1.84 2.86-5.14 4.06-7.32 6.7-1.6-4.8-1.6-4.8 3.82-9.57-.37-1.35-2.4-.5-2.67-1.98-.5-2.77-1.89-2.62-3.81-1.24-1.62 1.16-2.82-.02-4.03-.94-1.64-1.25.08-2.08.43-3.04.45-1.26 1.46-2.6.32-3.79-1.26-1.32-2.48.11-3.69.53-.42.15-.79.48-1.22.59-1.26.33-2.42 2.85-3.72.73-.78-1.27.3-3.09 1.7-3.71 1.72-.76 1.62-.97.88-2.8-.91-2.23-.96-4.36-3.73-5.53-1.72-.73 1.12-3.93-1.5-5.07.9-1.37 2.32-2.01 3.72-2.67.42-.61 1.31-.37 1.75-.95.5-.51 1.34-.34 1.82-.9 1.4-.24 2.83-.43 3.49-1.98l.01.05c.45-.09.71-.49 1.08-.71l.05-.03c.42-.63 1.25-.43 1.76-.89l.05-.03c1.15-.77 2.29-.89 3.06.42.6 1.02.21 2.06-.49 2.94-1.62 2.05-3.84 3.4-5.87 4.97-.56.43-1.33.93-.83 1.84.32.59.99.65 1.6.61 2.42-.19 4.74.86 7.21.46 2.67-.43 3.45 1.01 3.18 3.51-.61 5.77.64 6.71 6.62 5.19z"/>
  <path class="st5" d="M77.24 36.95c-1.69 2.99-3.1 3.44-6.42 1.62-2.21-1.21-4.1-2.74-2.09-5.7.64-.93 1.64-2.13.76-3.27-.87-1.14-1.88.35-2.83.31-3.41-.13-6.82-.35-10.21-.66-1-.09-.96-1.05-.73-1.78.52-1.64 1.47-2.97 3.16-3.6 2.2-.83 3.67-2.62 5.3-4.14 2.28-2.11.7-2.65-1.4-2.73 4.3-2.14 8.69-4 13.5-4.68-.19 3.39-.7 6.83 1.67 9.81.34.43.68 1.42.48 1.62-3.03 3.09-1.26 5.76.35 8.72.82 1.58-1.66 2.75-1.54 4.48z"/>
  <path d="M113.62 11.55c-1.4-.8-.6-2.71-1.82-3.6.84-1.79 2.29-2.96 4-4.17 2.35 2.91 1.04 4.94-1.15 6.81-.32.36-.76.6-1.08.97l.05-.01z" fill="#dce5a3"/>
  <path class="st1" d="M8.06 83.98c.02 5.85.03 11.7.05 17.54-.98-5.84-1.46-11.68-.05-17.54z"/>
  <path class="st5" d="M59.82 18.62c-.03 2.66-1.32 3.09-3.49 1.98.92-1.08 2.12-1.68 3.49-1.98z"/>
  <path class="st5" d="M79.04 11.57c-.75.9-1.75.91-2.79.79.76-.87 1.77-.86 2.79-.79z"/>
  <path class="st1" d="M9.93 76c.08.99.14 1.97-.73 2.7-.19-1.02-.17-1.98.73-2.7z"/>
  <path class="st5" d="M62.71 17.05c-.42.62-1.03.87-1.76.89.42-.65 1.01-.93 1.76-.89z"/>
  <path class="st5" d="M56.32 20.6c-.42.68-1.06.92-1.82.9.45-.62 1.07-.9 1.82-.9z"/>
  <path class="st5" d="M54.5 21.5c-.39.67-1.01.93-1.75.95.42-.63 1-.95 1.75-.95z"/>
  <path class="st1" d="M17.29 59.75c-.04.73-.3 1.34-.95 1.73-.05-.78.3-1.34.95-1.73z"/>
  <path class="st1" d="M14.5 65.14c.02.76-.24 1.39-.91 1.8-.03-.77.23-1.39.91-1.8z"/>
  <path class="st1" d="M13.6 66.92c.02.77-.21 1.42-.89 1.85-.06-.79.22-1.41.89-1.85z"/>
  <path class="st1" d="M12.71 68.75c.01.72-.17 1.35-.79 1.79-.11-.75.17-1.35.79-1.79z"/>
  <path class="st1" d="M10.84 73.28c.05.7-.11 1.32-.7 1.77-.14-.74.04-1.35.7-1.77z"/>
  <path class="st1" d="M8.99 79.52c.09.72-.02 1.38-.59 1.9-.13-.73-.05-1.4.59-1.9z"/>
  <path class="st3" d="M113.56 11.56c.36-.32.72-.64 1.08-.97-.06.3-.11.6-.17.9-.3.03-.61.05-.91.07z"/>
  <path class="st5" d="M60.9 17.96c-.36.24-.72.47-1.08.71.37-.24.73-.48 1.08-.71z"/>
  <path class="st4" d="M49.04 25.11c-.25.49-.64.75-1.19.78.4-.25.79-.51 1.19-.78z"/>
  <path class="st1" d="M18.99 56.74c-.22.36-.45.73-.67 1.09.22-.36.45-.73.67-1.09z"/>
  <path class="st1" d="M18.04 58.41c-.24.43-.49.86-.73 1.29-.02-.58.23-1.01.73-1.29z"/>
  <path class="st1" d="M16.33 61.51l-.55.82c-.06-.43.14-.7.55-.82z"/>
  <path class="st1" d="M15.39 63.26c-.18.29-.36.59-.54.88-.08-.45.11-.74.54-.88z"/>
  <path class="st1" d="M11.68 71.23c-.19.37-.38.74-.57 1.1-.07-.5.11-.87.57-1.1z"/>
  <path class="st2" d="M36.45 126.72c.31-.19.61-.38.92-.56-.31.19-.61.38-.92.56z"/>
  <path class="st2" d="M31.94 129.34c.25-.17.49-.34.73-.51-.24.17-.48.34-.73.51z"/>
  <path d="M83.46 44.09c2.66-2.05 4.35-4.97 6.25-7.59 2.12-2.91 5.14-4.77 7.31-7.64 2.83-3.75 6.43-2.1 8.36 3.45-3.84 9.72-3.21 19.75-1.92 29.79.46 3.54.28 6.62-3.22 8.57-1.95-.59-2.37-2.62-3.59-3.91-1.19-1.25-1.52-3.49-4.24-1.86-1.32.8-2.76-.31-2.06-2.17.85-2.23-.2-3.32-1.93-4.37-1.7-1.03-2.37-2.54-1.8-4.62 1.49-5.44 1.44-5.45-3.05-8.59l-.35-.5c.08-.19.16-.38.24-.56z" fill="#8baf24"/>
  <path class="st1" d="M25.41 99.65c-3.18-2.75-1.06-6.01-.86-9.09 1.07.43 1.08 3.15 2.22 2.08 1.59-1.49 4.57-2.19 4.35-5.19-.23-3.18 1.71-4.01 4.61-4.26-2.75 2.96-2.67 6.51-2.73 10.07-.04 2.13-1.67 2.6-3.43 2.76-2.26.21-4.21.76-4.16 3.63z"/>
  <path d="M73.58 54.25c-2.46-.53-2.46-.53.08-3.53 2.78-2.71 6.04-4.93 8.15-8.29l-.01.03c1.01.08 1.63.56 1.67 1.63v.07c-.14.42-.43.74-.74 1.03l.01-.02c-.61.42-.39 1.33-1.03 1.74h.01c-.24.37-.59.68-.72 1.12-.67 1.14-1.34 2.29-2.01 3.43-.21.34-.46.66-.75.95l-.09.12c-.89 2.21-3.12.83-4.52 1.68l-.05.04z" fill="#d6e69c"/>
  <path class="st3" d="M81.71 46.91c-.02-.79.29-1.39 1.03-1.74.03.8-.31 1.38-1.03 1.74z"/>
  <path class="st3" d="M82.72 45.19c.25-.34.5-.69.74-1.03.04.33.07.65.11.98l-.42.06-.43-.01z"/>
  <path class="st3" d="M80.99 48.03c.24-.37.48-.75.72-1.12-.24.37-.48.74-.72 1.12z"/>
  <path class="st4" d="M78.23 52.41c.25-.32.5-.63.75-.95l.06.94-.4.02-.41-.01z"/>
  <path class="st0" d="M41.42 64.74c.99-2.06 2.47-3.01 4.13-3.7.84-.35 1.8-.59 2.28.5.43.98-.07 2.06-.97 2.07-1.8.01-3.16 1.7-5.44 1.13z"/>
  <path class="st0" d="M60.11 64.61c-.27 1.44-1.11 2.39-2.49 2.58-.68.09-.87-.68-.65-1.29.56-1.5 1.56-2.02 3.14-1.29z"/>
  <path class="st4" d="M73.62 54.21c1.15-1.51 3.14-.78 4.52-1.68-.44 3.42-2.68 2.02-4.52 1.68z"/>
  <path class="st3" d="M81.81 42.42c-.7 4.75-4.79 6.17-8.15 8.29 1.95-3.52 4.8-6.15 8.15-8.29z"/>
</svg>
