<svg version="1.1" id="Layer_1" xmlns="http://www.w3.org/2000/svg" x="0" y="0" viewBox="0 0 141.73 141.73" xml:space="preserve">
  <style>
    .st1{fill:#5b7f26}.st4{fill:#708a32}.st5{fill:#668c2b}.st6{fill:#7d9f4a}
  </style>
  <path d="M128.38 127.92c-5.21-1.38-10.42-.8-15.63.03-3.44.67-6.27.61-7.6-3.68-.8-2.57-3.55-3.38-6.13-3.94-7.71-1.69-15.49-3.13-23.14-5.1-.96-.25-1.94-.41-2.86-.77-1.08-.43-2.3-1.02-2.03-2.32.28-1.41 1.68-1.36 2.79-1.08 1.26.31 2.54.1 3.78.41 6.66 1.64 13.4 2.93 19.21 4.35-3.44-.31-6.11-4.36-10.42-4.95-.52-.07-.14.26-.35-.18-1.77-3.73-4.57-6.83-6.48-10.42-1.02-1.92 1.48-2.11 2.96-2.41 1.54-.32 3.55 1.38 4.62-.7 1.09-2.13-.95-3.28-2.03-4.66-1.41-1.81-3.04-3.76-1.94-6.1 1.21-2.56 3.84-2.53 6.29-2.21 2.85.37 2.15-.5 1.75-2.77-1.01-5.72-5.18-9.46-7.66-14.21.53-2.72 2.2-1.69 3.3-.74 3.73 3.24 7.4 6.31 12.62 7.02 1.89.26 2.95 2.46 4.23 3.95 1.32 1.54 2.29 3.51 4.72 4.3.44-2.38-1.65-2.89-2.41-4.18-1.09-1.84-4.09-2.99-2.24-5.95.86-.26 1.62.01 2.37.39.37.19.72.41 1.06.65.17.11.34.24.51.35.35.23.68.48 1.01.74 9.63 7.51 14.4 17.84 16.55 29.49 1.31 7.09 3.98 13.44 8.28 19.15.22.35.4.72.55 1.1.14.38.21.78.24 1.18-1.06 1.61-1.3 4.06-4.03 4.01-.54-.54-1.3-.42-1.89-.75z" fill="#486619"/>
  <path class="st1" d="M83.73 66.84c2.74 2.04 4.23 5.22 6.81 7.43.48.41.83 1.25.82 1.88-.05 2.28 0 4.3 2.17 5.91.79.58.69 2.5-.16 3.54-.94 1.15-2.3.81-3.5.28-.87-.38-1.5-1.09-2.69-.77-3.75.99-4.33 2.58-1.85 5.74.61.77 1.24 1.66 2.07 2.09 3.33 1.7 1.48 4.53 1.45 6.83-.02 1.05-1.59 1.09-2.45.45-1.88-1.38-3.89-1.4-6.08-.94.02 1.64.96 2.66 2.2 3.32 2.23 1.2 4.23 2.32 3.03 5.49-.39 1.04.51 1.91 1.7 1.87 2.78-.09 4.53 1.52 6.59 3.13 1.99 1.55 4.83 2.03 7.31 2.95.81.3 1.83.63 1.46 1.65-.38 1.06-1.37.48-2.17.3-9.03-1.99-18.06-3.96-27.09-5.94-.55-.12-1.09-.32-1.91.62 4.35 1.09 8.44 2.23 12.59 3.14 5.75 1.27 11.55 2.36 17.32 3.55 2.9.6 5.34 3.22 5.7 6.41.16 1.4 1.1 1.58 1.96 1.78 1.22.29 2.51.27 3.77.38-5.03 1.77-10.28 1.24-15.43 1.19-14.43-.14-28.07-3.61-40.76-10.59.63-2.96 2.67-1.54 4.21-1.26 2.31.43 4.15 2.28 6.88 2.48-.11-1.52-1.28-1.79-2.17-2.14-2.57-1-4.66-2.43-5.81-5.1-1.04-2.42-3.45-3.1-5.6-4.11-1.1-.51-2.85-1-2.39-2.44.49-1.53 2.29-1.37 3.67-1.06 2.46.55 4.74 1.69 7.17 2.34 1.39.73 2.95.97 4.45 1.28 1.77.36 3.62.17 5.52-.03-1.28-.37-2.46-.88-3.07-2.11-.75-1.54.46-2.32 1.35-3.18 1.49-1.43.56-2.18-.78-2.75-1.69-.71-3.48-1.16-5.15-1.9-3.51-1.56-3.97-3.71-1.46-6.53 5.56-6.25 5.63-6.34-1.14-11.19-6.14-4.4-11.84-9.45-18.65-12.91-2.1-1.07-3.01-3.29-4.2-5.2-.5-.81-1.16-1.76-.35-2.71.74-.87 1.78-.67 2.75-.44 3.86.92 6.75 3.39 9.57 5.97 3.59 3.27 3.58 3.28 7.19-.25 2.49-2.43 4.07-2.23 5.94.89.87 1.46 1.49 3.16 3.17 3.81 1.91.74 4.19 2.66 4.56-1.76.27-3.2 2.83-2.49 4.83-1.49 2.04 1.01 3.95 2.46 6.08.26.19-.04.38-.1.57-.16z"/>
  <path d="M48.77 28.92c.04.25.1.5.16.74-2.2 4.34-5.94 2.34-9.21 2.23.88 4.03.3 4.93-3.63 4.85-3.69-.08-6.82.2-6.83 5.08 0 1.26-.89 2.38-2.18 2.89-7.78 3.1-10.33 10.08-11.62 17.25-.66 3.65 1.51 7.54 4.32 10.53 2.91 3.1 2.61 4.84-1.32 7.33 5.15 6.37 11.07 11.83 17.63 16.64.64.73 1.44 1.26 2.2 1.86 4.82 3.75 4.52 6.03-1.17 9.23-3.2-1.57-5.83-3.95-8.22-6.48C18.26 89.79 9.95 77.01 4.59 62.42 1.87 55.01.83 47.44 3.1 39.69c1.79-6.13 3.49-12.22-1.08-18.45 4.38 4.18 8.7 1.24 12.94.79 10.48-1.11 20.41.94 29.96 5.18 1.28.57 2.57 1.14 3.85 1.71z" fill="#92ae74"/>
  <path d="M37.11 107.53c3.95-5.25 3.95-5.24-.96-9.17-.31-.25-.47-.68-.71-1.03 1.54-1.27 2.95-.27 4.31.34 2.45 1.09 4.93 2.07 7.94 2.69-.3-1.44-2.1-2.14-1.63-3.54 1.3-3.79-1.19-5.03-3.99-6.1-1.41-.54-2.27-1.44-1.26-2.87 2.49-3.54-.43-5.34-2.52-6.82-3.11-2.21-6.09-4.35-8.6-7.34-1.74-2.06-4.41-3.74-7.36-1.18-1.05.92-2.14.34-3.1-.32-3.72-2.58-3.12-9.15 1.01-11.17 2.07-.04 2.72 1.73 3.8 2.97 2.51 2.86 4.03 2.85 6.38.01 2.74-3.32 6.96-2.78 8.51 1.43.83 2.25 1.78 2.96 4.11 3.14 5.54.42 8.92 4.46 12.25 8.27 1.87 2.13-.27 3.43-1.62 5.07 2.57-2.83 5.22-2.27 8.02-.67 4.34 2.48 4.73 4.2 1.35 8.06-1.56 1.78-1.51 5.1-1.18 5.7 1.8 3.29-.75 8.61 4.61 10.22 1.12.33 1.87 1.43 1.44 2.7-.4 1.19-1.46 1.11-2.49.88-.95-.22-1.96-.13-2.89-.46-3.54.16-6.34-3-10.87-2.32 2.62 1.08 4.52 1.82 6.38 2.65 1.14.51 2.52 1.01 2.69 2.44.42 3.66 3.28 4.55 6.04 5.56 1.87.69 4.58 1.51 3.59 3.66-1.15 2.5-3.58 1.32-5.79.19-2.42-1.24-4.75-3.78-8-1.96-7.04-2.71-13.44-6.54-19.46-11.03z" fill="#729542"/>
  <path class="st4" d="M133.54 124.6c2.41 1.78 4.54 3.82 5.89 6.55-.94 1.24-2.12 1.14-3.32.53-1.96-1-4.13-1.58-5.85-3.03 2.77-1.26-1.53-2.18-.22-3.27.96-1.58 2.9 2.28 3.5-.78z"/>
  <path class="st4" d="M128.38 127.92c.79-.19 1.43.01 1.87.72-.76.12-1.39-.1-1.87-.72z"/>
  <path class="st1" d="M94.59 64.38c3.19 2.49 6.37 4.98 9.56 7.47.27 2.62 1.93 4.33 3.85 5.87.66.53 1.43.95 1.96 1.58 1.01 1.22 1.21 2.66-.06 3.78-1.23 1.08-2.65.91-3.73-.36-1.36-1.61-2.59-3.32-3.92-4.96-1.64-2.02-2.92-3.74-6.37-3.69-3.32.05-6.04-3.11-8.57-5.56-.95-.91-1.51-3.02-3.58-1.67l-.06.04c-4.81-.44-6.09-4.68-8.38-7.82-.3-.42-.34-1.09.17-1.53.77-.65 1.66-.44 2.33.04 3.05 2.18 6.66 3.56 9.63 5.56 2.66 1.8 4.65 1.62 7.17 1.25z"/>
  <path class="st4" d="M132.75 123.73c.23.25.45.51.68.76-.22-.26-.45-.51-.68-.76z"/>
  <path class="st1" d="M106.54 73.66c.5.02.87.25 1.07.71-.36-.23-.71-.47-1.07-.71z"/>
  <path class="st1" d="M105.71 72.99c.44 0 .69.25.81.65a17.7 17.7 0 01-.81-.65z"/>
  <path class="st5" d="M94.59 64.38c-.77 1.94-2.14 2.31-4.2 2.3-2.16-.01-3.25-.33-3-2.68.05-.44-.37-.94-.78-.8-4.74 1.56-6.23-3.14-9.3-4.78-.35-.19-.71-.38-1.25-.4 2.17 3.27 4.24 6.61 7.61 8.87-.86 3.49-1.91 4.09-4.79 2.61-.86-.44-1.61-1.12-2.38-1.73-.82-.65-1.76-1.15-2.72-.68-1.49.74-.13 1.57.06 2.41.65 2.88-.6 3.74-3.52 3.04-3.7-.88-6.54-2.35-7.19-6.55-.18-1.17-1.79-2.24-2.45-1.08-1.07 1.88-3.31 2.7-3.94 4.76-1.08 3.48-2.27 1.86-3.49.16-3.4-4.77-7.85-7.98-14.37-9.9 2.89 3.86 5 6.72 8.75 8.88 7.12 4.11 13.54 9.42 20.19 14.33 2.14 1.58 2.2 4.04.31 5.93-1.33 1.34-2.21 2.99-4.04 4.04-2.32 1.32-1.86 3.3.69 4.18 2.12.73 4.29 1.3 6.42 1.98 1.25.4 2.42 1.03 2.6 2.47.2 1.57-.91 2.16-2.22 2.6-.72.24-1.89.48-1.47 1.59.35.94 1.25 1.55 2.41 1.17.97-.32 1.91-.52 2.79.2.55.45 1.16.94 1.1 1.7-.07.9-.87 1.02-1.57 1-4.17-.07-8.45.66-12.32-1.66.13-.05.28-.07.4-.15 1.3-.85 3.76 1.25 4.04-.75.3-2.12-2.24-1.33-3.6-1.7-1.77-.47-2.91-1.69-1.81-3.36 1.05-1.58.07-2.55-.2-3.85-.36-1.71-2.45-3.16-.07-5.42 1.33-1.27-1.1-3.06-2.34-4.28.9-1.3 1.85-.63 2.72-.42 1.86.44 1.99-1.15 2.57-2.16.61-1.06.25-1.87-.8-2.44-1.72-.94-3.42-1.91-5.14-2.84-.69-.37-1.58-.39-1.86.32-1.75 4.41-4.22 1.05-6.6 1.12.37-1.64 1.47-1.04 2.1-1.38 1.11-.6 2.55-.94 3.03-2.16.77-1.97-1.67-1.43-2.17-2.4-1.49-2.89-3.63-4.99-6.77-5.93-1.57-.47-3.03-1.22-4.89-.7-2.21.62-4.42 1.02-3.08-2.96.87-2.56-1.94-3.51-3.85-4.05-1.77-.5-2.68.43-2.62 2.63.04 1.79-3.24 2.63-5.2 2.21-3.38-.74-3.48-4.59-6.13-5.89-1.76-1.32-2.52-3.16-.57-4.52 2.74-1.91 3.06-4.62 3.3-7.39.26-3.01 1.76-3.52 4.27-2.68 1.47.49 2.9 1.08 4.3 1.77 3.47 1.71 3.47 1.71 7.6-.42-.62-1.52-2.33-1.42-3.38-2.28-1.19-.98-1.94-2.25-1.16-3.67.7-1.28 1.97-.53 3.04-.28 4.11.97 7.97 2.73 12.51 2.05 2.74-.41 5.38 1.36 7.24 3.72.51.65 1.19 1.5 2.08.96 1.14-.69.5-1.74.08-2.61-.63-1.27-1.76-2.2-2.48-3.41-.43-.73-.95-1.56-.33-2.33.61-.76 1.53-.5 2.34-.22.27.09.57.16.76.36 3.52 3.64 8.51 3.99 12.88 5.71 7.29 5.93 14.57 11.89 21.86 17.84z"/>
  <path class="st5" d="M64.96 74.13c-.09.83-.56 1.67-1.71 1.8-1.1.13-1.47-.61-1.45-1.56.03-1.29 1.03-1.55 2.01-1.72.95-.17 1.22.41 1.15 1.48z"/>
  <path class="st6" d="M72.73 46.52c-3.93.28-7.84.68-10.93-2.73-1.1-1.22-2.67-2.01-4.41-2.77 2.04 3.1 5.6 5.48 4.33 10.06-2.34.36-4.61.69-5.82-2.82-.87-2.5-4.15-1.92-6.11-3.21-.18-.12-.96.21-1.01.43-.91 4.06-2.12 2.72-3.47.24-.48-.89-1.42-.91-2.24-.82-2.81.28-5.25-.63-7.71-2.76-.1 2.32.29 3.56 2.38 3.57 1.04.01 1.92.4 2.64 1.15.77.8 1.91 1.51 1.56 2.79-.4 1.51-1.77 1.05-2.84 1.03-.42-.01-1.12-.33-1.21-.19-2.99 4.55-5.13-.06-7.57-.74-1.88-.52-3.66-1.43-5.48-2.16-1.44 3.62.85 8.61-4.57 10.54-2.06.73.32 2.4-.02 3.64-3.99 3.2-3.5 7.57 1.46 10.49.33-3.77 1.97-3.85 4.86-2.11 2.27 1.37 5.02 1.6 5.94 4.94.39 1.42 2.55 3.08 4.11 3.31 3.43.5 4.08 3.94 6.61 5.26 1.25.65 1.21 1.76.27 2.8-.74.82-1.47 1.65-2.58 2.91 2.82-.38 4.26 1.53 6.16 2.61 3.59 2.03-.09 3.67-.06 5.59 1.48 1.18 3.82 1.68 4.18 4.43-3.8.45-7.04-1.12-10.32-2.4-1.82-.71-3.41-1.99-5.41-2.27-7.17-4.5-12.96-10.48-18.25-17-.97-1.19-.94-1.22-1.39-3.61.62-.29 1.06.03 1.44.46.72.82 1.5 2.2 2.59.76.76-1.01 1.82-2.79.22-3.74-3.8-2.26-4-6.63-6.23-9.78-.59-.84-.59-2-.23-2.87 1.73-4.14 2.05-9.02 5.89-12.09 2.25-1.8 2.82-3.59.41-6.13 2.47 2.49 4.78.43 6.89.25 1.46-.13 2.35-2.67 1.47-4.19-1.5-2.59.14-2.97 1.88-3.29 2.26-.4 4.46-1.72 6.88-.45 1.02.54 2.02.05 2.4-.99.41-1.13-.16-1.89-1.38-2.08-1.59-.24-1.78-1.13-1.1-2.41.72-1.35 1.71-.68 2.51-.22 3.25 1.88 6.4 1.68 9.51-.3 9.01 4.04 16.73 9.96 23.75 16.87z"/>
  <path class="st6" d="M51.12 48.43c1.11.02 1.78.65 1.91 1.76.08.61-.3 1.18-.95 1.05-.85-.17-1.48-.8-1.77-1.63-.22-.64.07-1.07.81-1.18z"/>
</svg>
