<svg version="1.1" id="Layer_1" xmlns="http://www.w3.org/2000/svg" x="0" y="0" viewBox="0 0 141.73 141.73" xml:space="preserve">
  <style>
    .st0{fill:#668824}.st1{fill:#8ca72b}.st4{fill:#506e1c}.st5{fill:#677c45}.st6{fill:#a7ba7e}
  </style>
  <path class="st0" d="M98.91 71.45c-1.54 14.81-6.83 27.68-19.15 36.9-.4-.1-.63.06-.68.47l.07-.09c-3.48.2-3.97-.45-2.65-3.3 2.1-4.53 5.98-7.7 9-11.5 2.36-2.96 3.94-6.24 5.78-9.43-1.6 2.7-2.57 5.78-4.75 8.12-2.81 3.02-5.39 2.87-7.88-.36-.18-.23-.3-.49-.48-.72-3.73-5.03-4.13-5.02-7.38-.05-.63.96-1.23 1.95-1.83 2.93-.84 1.36-1.72 2.98-3.65 2.24-1.96-.75-1.58-2.46-1.19-4.07-1.68 8.24-1.4 16.93-5.62 24.6-1.85 1.9-2.66.68-3.29-1.09-.87-2.3 1.24-4.43.38-6.72-.06-.26-.1-.51-.14-.77-.38-.57-.27-1.29-.6-1.87l-1.92-5.19c-1.32-4.41-3.62-8.37-3.01-13.51.35-2.99-1.77-6.52-2.89-9.73-2.12-6.11-2.7-12.67-5.65-18.5-.26-.51-.39-1.09-.47-1.66-.15-1.16-.31-2.5.9-3.09 1.38-.66 2.15.56 2.63 1.56 1.61 3.38 6.68 4.71 5.29 9.96 2.09-1.87 2.3-2.01 1.24-3.73-2.66-4.29-1.23-9.37-2.9-13.82 2.58-2.31.71-7.45 5.34-8.45 1.4-.3.89-1.23.71-2-.29-1.26-.88-2.45-1.07-3.73-.2-1.3-.36-2.82 1.15-3.34 1.35-.47 2.96.39 3.24 1.54 1.28 5.15 5.42 7.46 9.28 10.19 2.27 1.6 2.07 4.28 2.2 6.72 1.28 3.67 2.27 7.42 2.64 11.71 1.21-2.12 3.14-2.91 4.83-4 .48-.31 1.02-.51 1.62-.52 2.63-.05 1.23 4.44 4.31 3.84 3.61-.7 3.11 2 3.36 4.04.14 1.19.56 2.17 1.37 3.08 3.9 4.4 3.56 8.49-.98 12.73 3.19-1.56 6.07-5.84 6.69-10.78.5-3.97 1.36-7.97.59-12.03a6.91 6.91 0 01.09-3c.22-.86.53-1.83 1.49-1.91.92-.07 1.47.79 1.88 1.57.76 1.43.94 3.04 1.09 4.6.38 4.06-.32 8.19 1.01 12.16z"/>
  <path class="st1" d="M67.66 49.73c.52-3.85-1.41-6.14-4.75-7.61-3.14-1.38-5.9-3.02-5.74-7.17.07-1.72-1.61-2.05-3.15-2.99-.18 3.44 1.81 5.83 2.19 8.6.13.92 1.38 1.87.28 2.7-.98.75-1.85-.19-2.61-.85-.54-.46-1.03-1.02-1.9-.9-.9 1.14.11 2.17.32 3.2.25 1.18-.01 2.44-.98 2.5-3.4.18-2.32 2.19-1.5 3.67.82 1.49 1.01 2.75.71 4.44-.49 2.78.19 5.47 2.23 7.57 1.72 1.77 2.64 3.23-.56 4.31-1.26.43-1.41 2.19-2.84 2.53-1.07-.29-1.2-1.5-1.1-2.06.59-3.48.75-6.4-3.69-7.61-1.59-.44-.55-3.29-2.42-4.68-.68 3.63 1.11 6.49 2.43 8.99 2.35 4.45.71 10.1 4.63 13.9-1.34 3.66 1.15 6.22 2.59 9.09.13.25.3.63.2.82-2.52 4.67 1.18 8.89.94 13.39C41.69 81.39 31.16 60.91 26.53 38c-.25-1.26-.27-2.56-.4-3.84-.41-.5-.56-1.18-.08-1.54 1.13-.85 1.84.11 2.48.85 1.45 1.68 1.28 4.43 4.02 6.01.42-3.55-1.22-6.41-1.19-9.41.01-1.34-1.22-3.07.53-3.87 1.63-.74 2.53.94 3.43 2 1.39 1.65 2.91 3.14 5.11 1.67 2.27-1.52 6.24-1.71 5.19-6.18-.4-1.7-.36-3.72 1.64-4.44 2.1-.76 3.07 1.08 3.99 2.52 1.72 2.68 3.27 4.6 6.82 1.97 2.64-1.96 4.01.61 5.25 2.87-.17-2.09-.86-4.1 1.08-5.55 3.51.45 4.64 3.56 5.48 6.01 1.09 3.2 2.83 5.91 4.4 8.78 1.11 2.02 2.09 4.09 2.72 6.33 1.59 5.64.15 10.54-4.35 14.13-1.54 1.23-2.79 1.02-2.79-1.21.03-2.15-.8-3.85-2.2-5.37z"/>
  <path d="M67.66 49.73c5.87-.38 1.91 4.2 2.94 6.17 1.65.38 1.69-.92 2.05-1.72.4-.89.04-2.36.99-2.74 5.39-2.15 2.3-6.01 1.99-9.29-.23-2.37-1.64-4.44-2.97-6.12-3.61-4.56-3.42-11.19-8.41-14.88-.12-.16-.23-.33-.35-.49.25-2.48 1.7-1.85 3.03-1.07 1.15.67 1.74 1.89 2.36 3.03 1.47 2.7 2.66 5.78 6.3 1.91 1.08-1.15 2.74-.41 3.78.83.93 1.12 1.47 2.47 2.1 3.76.77 1.61 1.42 3.32-.12 4.79-1.69 1.62-3.28.64-4.75-.62 2.02 1.95 5.29 1.82 7.32-.14 2.04-1.97.9-3.79-.44-5.3-5.67-6.39-11.26-12.88-18.73-17.36-1.46-.87-3.05-1.83-3.8-3.43-.66-1.39-.27-2.27 1.5-1.43l.07.03c.46.46 1.24.27 1.65.82l.1.04c.43.46 1.22.25 1.58.84l.14.07c.31.25.63.47.97.67l-.04-.03c.33.67 1.18.46 1.62.95l.09.05c.28.34.57.66 1.04.71.3.02.53.15.69.41.3.1.51.3.62.59l.19.19c.31.15.55.37.73.66l.16.11c.29.24.59.47.9.69l.01.01c.24.42.58.71 1.07.79.79.71 1.59 1.42 2.38 2.13.3.12.53.31.69.59l.15.11c.28.23.55.47.81.72l.08.08c.25.28.51.54.79.79l.08.08c.25.28.51.54.79.79l.08.08c.25.27.51.54.78.79l.08.08.77.8.08.09c.28.24.52.51.74.8l.09.11c.28.18.5.42.65.72.4.53.8 1.05 1.2 1.58.1.43.4.72.68 1.03l.07.13c.27.16.46.4.54.71.27.13.42.35.44.65.08.5.39.82.8 1.08l-.01-.01c.24.31.47.62.7.94l.06.11c.6.34.37 1.24 1.04 1.54l-.05-.06c.12.42.48.67.74 1l.03.05c.28.2.5.47.64.78.26.14.39.35.39.65 2.64 6.08 3.99 12.68 7.53 18.39 1.61 6.9 2.75 13.82 1.05 20.88-2.45-2.51-3.01-5.21-2.17-8.79.64-2.73-.46-5.76-1.41-8.98-1.19 1.54-.9 2.72-.76 3.77 1.05 7.87.06 15.3-4.11 22.22-.74 1.23-1.31 2.14-2.84 2.07-1.22-.06-2.26.21-2.72 1.58-.27.81-.95 1.88-1.8 1.28-1.28-.92-.39-2.51.42-2.89 2.13-1.02 2.95-2.86 4.11-4.65 1.11-1.71-.11-3.74 1.2-5.3.11-.13-.21-.94-.46-1.01-4.83-1.38-4.67-5.08-3.94-8.84-2.35-1.05-2.41 4.08-4.91 1.49-1.37-1.42.1-3.69-1.29-5.39-1.74.29-1.7 3.3-4.35 2.65-1.31-.32-.89 1.67-.64 2.75.22.93.91 2.14-.69 2.32-1 .11-1.89-.61-2.15-1.75-.06-.28-.1-.57-.11-.85-.16-4.62-1.47-8.99-2.65-13.39z" fill="#7b9c1f"/>
  <path d="M64.24 21.16c-.95 3.39 1.91 6.4 1.36 10.39-2.42-1.83-3.31-3.85-4.15-5.97-.59-1.49-1.6-2.61-3.1-.68-2.05 2.62-5.1 2.62-6.94-.08-.8-1.18-1.32-2.55-2.02-3.81-.35-.63-.83-1.33-1.66-1.09-.96.28-1.46 1.34-1.08 2.05 2.83 5.27-.92 6.79-4.55 8.85-3.73 2.12-4.99 2.14-7.47-1.32-.65-.91-1.32-1.81-2.26-2.6 1.39 3.64-.19 7.84 2.58 11.21 1.25 1.53-.44 2.2-1.56 2.8-1.19.63-2.32 1.19-3.24-.52-1.1-2.05-1.63-4.29-2.49-6.42-.5-1.23-1.16-1.06-1.53.18-1.73-6.56-2.58-13.17-.88-19.86 1.14-4.5 2.59-5.12 7.12-4.14 3.69.8 7.31.54 10.25-2.44 5.04-5.12 10.94-5.65 17.37-3.08.54 1.9 1.39 3.75-.64 5.46-1.97 1.65-3.94 2.35-5.4 1.46 4.84.65 6.8 5.99 10.29 9.61z" fill="#a5b840"/>
  <path class="st4" d="M58.16 116.32c-.08-.12-.25-.28-.22-.36 3.5-8.28 3.3-17.33 5.38-25.91.23-.96.04-2.42 1.28-2.39 1.55.05 1.24 1.62 1.34 2.72.12 1.35-.43 2.53-.95 3.72-.31.72-.32 1.43.49 1.83.83.41 1.56-.09 1.75-.75 1.17-4.09 5.01-6.66 5.94-11.58.77 2.26 1.99 3.17 3.34 4.01 1.21.75 2.28 1.65 2.97 3.03 2.03 4.06 5.02 4.13 7.4.14 1.83-3.06 4.04-5.97 4.56-9.69.1-.75.46-1.69 2.13-2.31-1.23 4.83-2.93 8.94-5.17 12.92-2.96 5.27-7.52 9.27-10.86 14.23-1.77 2.62.02 2.47 1.62 2.78-6.34 5.17-11.56 11.7-19.03 15.49-.46.12-.79.42-1.1.75l-.01.01c-3.63-.42-3.92-1.71-1.38-5.95.39-.57 1.01-1.04 1.01-1.83-.1-.31-.27-.6-.49-.86z"/>
  <path class="st1" d="M64.24 21.16c-1.78.17-2.99-.56-3.73-2.22-1.49-3.34-4.01-5.47-7.6-6.32-1.61-.38-2.81-1.28-3.55-2.96 1.11-1.01 2.5-.8 3.54-.39 1.69.68 2.64 1.79 5.03.33 2.48-1.52 1.22-3.44 2.07-4.96.92.07 1.82.17 2.44.98-.51.16-1.46.62-.78.95 2.16 1.05 3.33 3.57 5.93 3.88.28.03.62.12.79.31 3.33 3.59 8.16 5.92 10.66 9.86 1.97 3.1 5.35 4.67 6.79 8.08 1.59 3.77.1 6.86-4.01 7.02-2.44.09-5.3 1.4-7.03-1.79-.57-1.06-2.19-1.78-.6-3.16 1.5-1.31 2.74-.55 3.58.76.69 1.08.55 3.38 2.68 2.03 1.94-1.22.58-2.72-.28-4.05-.39-.6-.7-1.26-.97-1.92-.47-1.15-.52-2.79-2.3-2.6-1.5.16-1.81 1.15-1.93 2.72-.14 1.71-3.06 1.76-4.32-.08-1.28-1.88-2.06-4.09-3.33-5.98-.65-.94-1.53-3.76-3.08-.49z"/>
  <path class="st5" d="M58.16 116.32h.87c.74.87.61 1.75.03 2.63-.95 2-4.42 3.98-.05 6.02-4.59 3.89-9.2 7.76-13.43 12.06-2 2.04-4.57 1.99-7.5 1.39 1.4-2.64 3.23-4.72 5.26-6.65.4-.16.73-.4.86-.84l.02-.02c3.99-2.97 6.55-7.05 8.85-11.35.74-1.38 1.04-3.41 3.36-3.23.1.46.06 1.17.73 1.03.39-.09.67-.68 1-1.04z"/>
  <path class="st6" d="M56.43 116.32c-2.45 4.48-4.77 9.05-8.7 12.5-1.04.91-1.81 2.29-3.51 2.08 5.32-6.36 8.08-14.09 11.38-21.52 1.61 2.16.56 4.63.83 6.94z"/>
  <path class="st1" d="M97.86 50.56c-2.96-1.1-4.06-3.88-4.61-6.41-.71-3.26-1.64-6.32-3.36-9.16-.64-1.06.04-1.92.44-2.83 4.23 5.44 6.57 11.64 7.53 18.4z"/>
  <path class="st1" d="M65.82 7.37c-.67-.02-1.22-.26-1.58-.84.7-.05 1.21.25 1.58.84z"/>
  <path class="st1" d="M68.51 9.03c-.73.01-1.31-.24-1.62-.95.7.04 1.27.3 1.62.95z"/>
  <path class="st1" d="M88.58 29.76c-.7-.27-.99-.83-1.04-1.54.6.34.99.82 1.04 1.54z"/>
  <path class="st6" d="M54.86 106.74c.64.48.83 1.11.6 1.87-.61-.49-.79-1.12-.6-1.87z"/>
  <path class="st1" d="M64.14 6.48c-.69.01-1.26-.22-1.65-.82.71-.04 1.26.24 1.65.82z"/>
  <path class="st1" d="M81.47 20.28c-.26-.27-.51-.54-.77-.8.46.07.72.33.77.8z"/>
  <path class="st1" d="M82.29 21.17c-.25-.27-.5-.53-.74-.8.45.08.7.34.74.8z"/>
  <path class="st1" d="M83.04 22c-.22-.24-.43-.48-.65-.72.41.06.65.28.65.72z"/>
  <path class="st1" d="M84.92 24.61c-.23-.34-.46-.69-.69-1.03.45.19.69.53.69 1.03z"/>
  <path class="st1" d="M85.53 25.45c-.18-.24-.36-.47-.54-.71.18.24.36.47.54.71z"/>
  <path class="st1" d="M87.47 28.11l-.7-.94c.47.13.7.45.7.94z"/>
  <path class="st1" d="M89.26 30.69c-.25-.33-.49-.66-.74-1 .48.17.71.51.74 1z"/>
  <path class="st1" d="M89.94 31.53c-.21-.26-.43-.52-.64-.78.21.26.42.52.64.78z"/>
  <path class="st4" d="M79.08 108.82c.04-.43.16-.72.67-.47-.11.3-.34.45-.67.47z"/>
  <path class="st5" d="M59.03 124.97c.37-.25.73-.5 1.1-.75-.21.47-.56.74-1.1.75z"/>
  <path class="st6" d="M44.21 130.93c-.05.52-.34.8-.86.85.08-.5.36-.78.86-.85z"/>
  <path class="st1" d="M86.77 27.18c-.27-.36-.53-.72-.8-1.08.48.21.75.56.8 1.08z"/>
  <path class="st1" d="M66.92 8.11l-.97-.67c.49-.02.83.19.97.67z"/>
  <path class="st1" d="M69.64 9.79l-1.04-.71c.5.02.84.26 1.04.71z"/>
  <path class="st1" d="M70.95 10.8l-.62-.59c.4-.01.59.21.62.59z"/>
  <path class="st1" d="M71.87 11.65c-.24-.22-.49-.44-.73-.66.25.22.49.44.73.66z"/>
  <path class="st1" d="M72.92 12.45l-.9-.69c.48.02.79.23.9.69z"/>
  <path class="st1" d="M74 13.25c-.36-.26-.71-.53-1.07-.79.52.05.88.31 1.07.79z"/>
  <path class="st1" d="M77.07 15.97c-.23-.2-.46-.39-.69-.59.23.2.46.4.69.59z"/>
  <path class="st1" d="M78.03 16.8l-.81-.72c.47.02.74.26.81.72z"/>
  <path class="st1" d="M78.9 17.66c-.26-.26-.53-.52-.79-.79.47.07.73.33.79.79z"/>
  <path class="st1" d="M79.76 18.53l-.79-.79c.47.06.73.33.79.79z"/>
  <path class="st1" d="M80.62 19.4c-.26-.26-.52-.53-.78-.79.46.06.72.33.78.79z"/>
  <path class="st1" d="M82.75 47.46c-2.33-1.16-5.5-1.03-5.51-4.81 0-.81-.16-1.9 1.05-1.96.82-.04 1.36.75 1.16 1.48-.49 1.77.36 2.23 1.88 2.53 1.18.22 2.09.95 1.42 2.76z"/>
  <path class="st1" d="M84.57 36.37c1.41 1.96 2.26 3.05 1.52 4.55-.2.41-.73.53-1.09.23-1.34-1.12-.82-2.48-.43-4.78z"/>
  <path class="st0" d="M59.07 118.95l-.03-2.63c2.5.85 1.27 1.74.03 2.63z"/>
</svg>
