<svg version="1.1" id="Layer_1" xmlns="http://www.w3.org/2000/svg" x="0" y="0" viewBox="0 0 141.73 141.73" xml:space="preserve">
  <style>
    .st0{fill:#a2bf62}.st2{fill:#6e9715}.st3{fill:#7c9c31}.st4{fill:#87ab1d}.st5{fill:#b3ce7c}.st6{fill:#89a94b}.st7{fill:#84a349}.st8{fill:#92b046}.st9{fill:#c5d879}.st10{fill:#52701f}.st13{fill:#698743}.st15{fill:#86a469}
  </style>
  <path class="st0" d="M91.67 46.37c.6.84.47 1.85.62 2.8 1.82 11.2-.5 21.73-5.22 31.83-2.55 5.45-7.43 9.06-11.24 13.5-3.56 4.13-6.89 8.39-9.73 13.01-3.77 6.14-8.62 11.31-13.83 16.19-1.31 1.22-2.61 2.56-4.63 2.5-2.37-1.74-3.65-3.97-2.77-6.97.87-2.97 2.45-5.36 5.81-5.87 3.93-.59 4.78-4.36 6.22-6.92.91-1.63 3.5-2.74 2.74-5.27.03-1.01.43-1.86 1.07-2.62.2-.23.43-.44.66-.64.21-.21.45-.4.68-.58.67-.46.71-1.26 1.03-1.91 1.24-3.74 4.84-6.17 5.61-10.17.2-.27.43-.49.7-.68 2.73-1.7 4.67-4.12 6.05-6.96.69-1.41 1.14-2.94 1.71-4.41 1.84-4.71 2.75-9.64 7.42-13.12 3.61-2.68 4.92-7.55 6.06-12.03.18-.69.36-1.34 1.04-1.68z"/>
  <path d="M90.84 43.02c.13.19.17.4.12.63-.23 3.71-.94 7.06-3.52 10.17-3.44 4.14-6.66 8.64-8.35 13.87-1.97 6.13-6.58 10.79-8.89 16.7-.16.4-.71.55-1.04.85-1.16 1.47-1.45 4.08-4.31 3.34-.7-3.16 1.25-5.62 2.57-8.03 3.59-6.6 7.28-13.14 10.33-20.03 1.31-2.95 3.68-5.47 2.34-9.05a.399.399 0 01.05-.33c2.59-3.29 1.58-6.44-.51-9.37-2.65 3.79-5.85 7.52-6.42 12.61-.05.44-.22 1-.56 1.21-3.34 2.01-2.57 5.22-2.68 8.31-.16 4.3-2.94 7.44-5.38 10.67-.4.52-1.06.86-1.8.41-1-1.61-.84-3.41-.14-4.91 2.18-4.69 2.23-9.9 3.87-14.71.58-1.72.64-3.59.24-5.38-.72-3.23.06-6.04 2.11-8.55 2.51-.74 3.56-2.56 4.39-4.98 1.22-3.54 2.11-7.44 6-9.39 1.21-.6.85-1.97 1.05-3.04.26-1.39.15-3.38 2.32-2.89 2.01.45 1.97 2.19 1.39 3.85-.37 1.07-.5 2.21-.83 3.26-1.4 4.39 1.05 7.74 3.03 11.46 1.27-.3 2.03-3.91 4.14-1.07.14.31.19.63.19.96.14 1.14-.27 2.32.29 3.43z" fill="#648228"/>
  <path class="st2" d="M28.44 71.65l-.12-2.1c1.51-.61 1.64 1.22 2.68 1.54 1.14-1.43.74-3.03.39-4.53-1.2-5.09.83-9.6 2.58-14.1.54-1.38 1.55-3.37 3.74-1.48-.39 6.06-.13 12.2-1.35 18.12-1.37 6.7-1.06 13.2.66 19.7 1.6 6.05 1.27 12.31 2.11 18.45.33 2.37.84 4.43 3.37 5.32.3.25.51.55.65.91.2 4.2-2.34 7.02-4.96 9.77-.7.73-1.6.68-2.42.05-4.7-10.94-6.89-22.38-6.85-34.26.02-4.18.01-8.35.01-12.53-.64-1.57.15-3.29-.49-4.86z"/>
  <path class="st3" d="M90.27 38.96c-.52-.18-1.05-.36-1.69-.59-.79.29-.35 1.1-.4 1.67-.14 1.61-1.22 1.67-2.42 1.62-1.35-.05-1.88-.88-1.5-2.03.63-1.9-.15-3.02-1.73-3.85-.77-.41-1.32-1.09-1.1-1.91.84-3.11-.16-6.54 1.72-9.46.36-.55.73-1.19.31-1.88-.3-.49-.72-.93-1.35-.85-.51.06-.67.53-.69 1-.03.79-.01 1.58-.07 2.36-.13 1.72.77 4.25-2.72 3.37-.69-.18-1.09.64-1.32 1.31-1.01 2.97-3.21 5.44-3.56 8.68-.31 2.84-1.94 3.78-4.61 3.27.14-2.84-2.36-5.1-1.75-8.05 1.19-5.23 3.47-10.07 5.26-15.08.36-1.65.71-3.33 1.29-4.91.79-2.13 2.49-4.2-.11-6.29-.23-.18.35-.74.74-.98.36-.43 1-.29 1.38-.68.96-.72 1.91-1.43 3.24-2.42.01 4.02 1.05 7.42 3.02 10.52 5.66 5.74 7.97 12.96 9.08 20.68.25 1.56 0 3.15-1.02 4.5z"/>
  <path class="st4" d="M37.16 50.5c-1.2.13-1.83 1.11-2.13 1.98-1.56 4.62-4.12 9.23-2.39 14.24.97 2.8-.68 4.74-1.11 7.07-.08.45-.47.78-1 .63-.5-.14-.67-.59-.74-1.03-.21-1.39.25-3.03-1.47-3.84-.55-1.75-.57-3.55-.43-5.35.84-11.43 4.61-21.92 10.26-31.8.33-.58.82-1.07 1.23-1.59.14-.26.32-.48.55-.66l.01-.01c1.53-.36 2.74-1.34 4.06-2.11 1.09-.64 2.16-1.69 3.57-.6-.45 2.87-2.39 4.99-3.71 7.43-2.18 3.72-3.54 7.75-4.71 11.86-.42 1.38-.55 2.94-1.99 3.78z"/>
  <path class="st5" d="M74.6 6.34c-.3.69-.48 1.03.67 1.18 1.79.24 2.55 2.07 1.48 3.13-2.3 2.28-2.04 5.28-3.02 7.9-5.18.5-8.55 5-13.55 6.08-3.68.79-4.01.95-4.77-2.84-.3-1.47-1.38-.75-2.08-1.09-2.08-.6-2.01-1.91-1.16-3.48 4.72-3.59 10.19-5.79 15.53-8.16 2.24-.98 4.38-2.38 6.9-2.72z"/>
  <path class="st6" d="M35.78 123.31c2.64-.85 3.88-3.25 5.13-5.32.73-1.19 1.45-2.69 1.72-4.22.39-2.07.7-4.21 1.83-6 .58-.92 1.44-2.88 2.85-.55.08.33.11.66.1 1-.13 1.69-.91 3.2-1.32 4.46 3.78-3.91 9.3-6.4 12.4-11.45.55-.41 1.11-.76 1.81-.37.77 1.58.47 2.3-.99 3.77-1.69 1.71-2.8 4.38-4.19 6.62-.48.77-.84 1.61-1.24 2.42-.44.88-.84 1.39-2.08.87-2.2-.92-3.82.47-4.73 2.18-1.05 1.97-2.84 4.11-.75 6.5.72.82 1.11 1.69 1.06 2.76l-.04.04c-.2.22-.41.42-.64.61-1.92 2.3-4.15 4.41-4.75 7.54l-.12-.05c-.13.3-.39.53-.47.85-.02.17-.07.34-.14.5-1.82.02-1.36-1.43-1.46-2.4-.3-2.91-.27-5.81.8-7.81-.97 2.63-1.74 3.14-4.01 2.12-.05-.44-.1-.89-.16-1.33-.27-.41-.15-.97-.47-1.36-.05-.46-.1-.92-.14-1.38z"/>
  <path class="st7" d="M69.17 85.24c1.09-3.67 2.8-6.9 5.09-10.08 2.71-3.78 4.44-8.31 6.29-12.65 1.65-3.86 4.26-7.01 6.76-10.28 1.06-1.39 2.5-2.54 1.88-4.74-.43-1.54 1.79-2.26 1.77-3.85.71.78.69 1.75.7 2.72-.47 2.6.81 5.72-2.34 7.56-.39.23-.46 1.25-.45 1.9.05 3.13-3.79 3.99-3.98 6.94-5.24-.02-4.17 4.6-5.4 7.45-1.23 2.87-1.64 6.24-3.36 8.72-1.74 2.5-2.9 6.19-6.96 6.31z"/>
  <path class="st8" d="M52.17 17.23c.53.88-.67 2.66 1.42 2.73.58.38 1.37.92.99 1.56-1.66 2.77-.58 6.25-2.43 8.94-.89 1.38-1.23 2.97-1.28 4.53-.09 2.76-1.49 4.65-3.55 6.22-2.39-.73-1.82-2.32-1.28-4.05.99-3.16 2.03-6.34 1.36-9.74-1.61.22-2.8 1.27-3.92 2.27-1.17 1.05-2.24 1.25-3.55.44 3.13-5.19 7.23-9.47 12.24-12.9z"/>
  <path class="st9" d="M36.55 127.38c1.87.16 2.71-1.04 3.35-2.53.64-1.5 1.31-2.99 1.96-4.48.21.08.43.15.64.23-.5 2.24-1.05 4.47-1.5 6.72-.56 2.73-.24 5.44.23 8.15-.12.54-.25 1.08-.37 1.62-.34 1.49-1.19 2.53-2.8 2.31-1.69-.22-1.52-1.7-1.53-2.92-.01-3.03.01-6.07.02-9.1z"/>
  <path class="st4" d="M28.44 71.65c1.04 1.53.52 3.23.5 4.87-.7-1.57-.61-3.22-.5-4.87z"/>
  <path class="st3" d="M90.3 39.52c.18.09.35.17.53.25 0 1.09.01 2.17.01 3.26-.97-1.05-.64-2.3-.54-3.51z"/>
  <path class="st9" d="M35.92 124.69c.44.36.6.81.47 1.36-.42-.36-.56-.82-.47-1.36z"/>
  <path class="st5" d="M75.97 5.67c-.32.52-.76.78-1.38.68.34-.49.8-.71 1.38-.68z"/>
  <path class="st9" d="M41.36 134.97c.16-.28.32-.57.47-.85-.15.28-.31.56-.47.85z"/>
  <path class="st8" d="M39.92 30.16c-.18.22-.36.44-.55.66 0-.37.19-.58.55-.66z"/>
  <path class="st7" d="M60.3 100.85c-.45.23-.9.45-1.34.68-1.01-1.02-.65-2.05.07-2.99.9-1.19 1.24-2.6 1.69-3.96 1.23-2.15 1.58-4.95 4.32-6.01 1.38-1.11 2.76-2.22 4.13-3.32.18 2.15-.39 3.99-2.05 5.48-1.63 1.46-2.17 3.66-3.43 5.37-.54.62-.67 1.5-1.34 2.03l-.01.01c-.22.22-.44.44-.67.65-.46.69-.91 1.38-1.37 2.06z"/>
  <path class="st6" d="M62.35 98.12c.03-.96.48-1.63 1.34-2.03.03.99-.06 1.91-1.34 2.03z"/>
  <path class="st6" d="M61.67 98.79c.22-.22.44-.44.67-.65-.23.22-.45.43-.67.65z"/>
  <path class="st0" d="M46.7 126.63z"/>
  <path class="st10" d="M65.04 88.56c-1.13 2.05-2.26 4.11-3.38 6.16-1.35 2.31-3.06 4.37-4.17 6.85-.63 1.41-1.56 3.07-3.56 1.58-1-.74-1.01.35-1.48.6-1.91 1.02-2.43 3.89-5.13 3.85-1.28-2.31.11-4.29.79-6.35.11-.27.24-.54.38-.8.17-.38.36-.76.56-1.12.13-.37.28-.74.44-1.1.14-.35.31-.7.48-1.04.1-.23.21-.46.33-.69.16-.35.33-.7.5-1.06.1-.26.21-.5.33-.75.16-.41.35-.79.54-1.18.2-.54.4-1.08.72-1.53 3.2-4.57 6.61-9 8.06-14.57.29-1.1 1.21-2.17 2.62-2.38 2.33-2.36 3.62-5.42 5.29-8.19 1.28-2.14.97-4.75.32-7.19-.41-1.56-.9-3.11 1.73-3.17 1.14-.02 1.79-1.23 1.85-2.18.28-4.52 2.59-8.09 5.29-11.4 1.32-1.61 1.65-3.54 2.56-5.79.89 1.42.58 2.54.6 3.57.02 1.17.23 2.17 1.09 3.09 1.95 2.09 1.89 4.19-.17 6.37-.72.77-1.11 1.55-.46 2.38 1.76 2.26.51 4.13-.83 5.8-1.34 1.63-2.34 3.29-2.43 5.44-.02.43-.15.96-.42 1.27-4.24 4.85-5.67 11.29-9.41 16.49-1.35 1.87-2.54 4.47-3.04 7.04z"/>
  <path d="M51.5 95.44l-.06.65c-.22.22-.43.46-.61.72-.01.22-.03.43-.06.65-.23.22-.44.46-.63.71-.03.44-.07.88-.1 1.32-.19.24-.39.47-.61.68l-.03.67c-1.57-.08-1.47-1.3-1.24-2.21 1.02-4.03 1.13-8.24 2.59-12.19 1.11-3.02 1.27-6.44.23-9.27-1.59-4.33-2.66-8.87-3.86-13.21-1.31-4.73-1.69-10.28.07-15.39 1.59-.7 1.96.59 2.35 1.59.53 1.38.56 2.85.5 4.33-.06 1.46-.63 3.04 1.58 3.75.91.29.9 1.76.82 2.77-.19 2.47.65 4.91.1 7.4-.27 1.23.33 2.37 1.65 2.5 1.7.16 1.1-1.32 1.19-2.2.46-4.1 1.35-4.98 5.64-5.17 1.03-.04 1.42-.54 1.61-1.36.29-1.22.46-2.57-.05-3.67-1.58-3.46-.09-6.8.16-10.2.05-.32.13-.64.23-.95.42-.92.4-1.94.64-2.91.84-2.43 1.63-4.88 2.24-7.38.33-1.35.5-3 2.54-2.95.15.92-.88 1.81.97 2.68 2.43 1.15 0 3.19-.22 4.85.05 1.06-.5 1.89-.9 2.83-.68 1.62-1.12 3.23-.36 5.15.76 1.91.39 4.08-.21 6.09-.95 3.2-2.25 6.33-2.07 9.77.04.71-.11 1.4-.54 1.91-1.87 2.24-1.89 4.94-2.02 7.62-1.91 3.17-3.49 6.47-4.26 10.14-.12.6-.64 1.21-1.13 1.62-2.57 2.16-4.15 4.98-5.53 7.96-.21.22-.43.45-.62.7z" fill="#7b9a4d"/>
  <path d="M37.16 50.5c.83-5.43 2.83-10.48 5.16-15.41.17-.36.66-.56 1-.84 2.95 1.79 2.03 4.99 2.6 7.59.38 1.72.09 3.62-.28 5.39-.49 2.41-.32 4.68.61 6.96.78 1.89.67 3.92.88 5.92.94 8.71-.58 17.44 1.09 26.21 1.38 7.27.85 14.85-3.46 21.49-1.06 1.63-.84 3.76-2.2 5.24-2.72.52-4.2-.43-4.4-3.36-.19-2.79-.98-5.58-.91-8.35.17-6.26-1.38-12.24-2.59-18.27-.87-4.36-.7-8.65.25-12.88.53-2.33 1.07-4.61.88-6.99-.32-4.32.66-8.49 1.37-12.7z" fill="#5d7f22"/>
  <path class="st13" d="M42.57 113.06c.17-2.77 1.54-5.15 2.52-7.65 2.89-7.36 2.74-14.79 1.36-22.5-.79-4.4-.84-9-.19-13.66.73-5.28 1.43-10.98-1.66-15.99-.81-1.31-.99-2.57-.56-3.83.94-2.75.58-5.6.84-8.39.21-2.29-.9-4.55-1.55-6.78 1.02-2.48 2.14-4.89 4.07-6.83 2.38-.41 2.31 1.48 1.63 2.44-1.91 2.69.24 6.46-2.63 8.87-.57.48.28 1.66 1 2.28 2.43 3.27 2.56 4.78.66 7.46-.75.7-.74 1.64-.65 2.53.35 3.56.79 7.11.02 10.68-.16.74-.2 1.73.42 2.26 2.61 2.24 2.25 5.48 2.94 8.37.1.43-.07 1.04.17 1.32 2.75 3.19 1.14 7.1 1.8 10.62.1.53.17 1.28-.11 1.65-2.92 3.9-1.55 8.97-3.61 13.1-.33.65-.21 1.32.38 1.83-.64 2.28-2.18 4.3-2.02 6.82-.11.08-.21.17-.32.25l-.33-.24c-1.03-.18-1.65.12-1.93 1.41-.38 1.76-.93 3.37-2.19 4.7l-.06-.72z"/>
  <path d="M68.41 34.13c-1.1.68-1.18 1.79-1.42 2.92-.57 2.76-1.22 5.52-2.65 8.01-.68.8.09 1.95-.65 2.74-.56.54-.99 1.23-1.78 1.51-1.13.41-2.26.39-3.19-.4-1.18-1 .02-1.79.39-2.62.27-.6.75-1.14.43-2.07-1.34.86-1.55 2.47-2.51 3.48-.73.77-1.53 1.4-2.65 1.04-1.09-.35-1.69-1.27-1.6-2.33.35-4.33-.51-8.48-1.64-12.61-.33-1.23.28-2.43.36-3.66.08-1.53 1.92-2.79.52-4.6-.63-.82.47-1.59.89-2.3.62-1.04 1.5-1.96.68-3.27 3.39-.72 3.65-.46 2.61 2.77-.14.43-.43.91-.06 1.24.75.67 2.1.52 2.5.22C61.2 22.3 65 23.03 67 20.02c1.71-2.58 4.39-1.39 6.73-1.45-1.81 5.17-4.18 10.16-5.32 15.56z" fill="#9cb87e"/>
  <path class="st13" d="M47.39 107.65c1.5-2.45 3.93-4.03 5.92-6.26 1.48 2.49 2.35 2.09 3.39-.45 1.01-2.47 2.76-4.57 4.96-6.21.15 2.69-2.77 4.15-2.7 6.81-1.07 4.3-5.08 5.84-7.97 8.39-2.33 2.06-5.25 3.52-6.36 6.89.49-2.96.74-5.85 2.08-8.48.15-.3.44-.46.68-.69z"/>
  <path class="st10" d="M47.38 107.65l-.68.68c.01-.22.02-.45.04-.67.21 0 .43-.01.64-.01z"/>
  <path class="st15" d="M51.5 30.14c.87 4.19 1.75 8.38 2.61 12.57.24 1.16-.3 2.21-.5 3.3-.14.8-.05 1.66.81 2.04 1.1.49 1.83-.36 2.11-1.14.73-2.06 1.8-3.85 3.41-5.33 1.94 2.21 1.67 4.18-.93 6.56 1.69 1.53 3.13-.3 4.7-.35.44 1.35-1.65 2.99.46 4.18.09.05.07.56-.01.6-3.34 1.52-.55 3.54-.41 5.3.21 2.62 1.06 5.32-1.51 7.37-.83.66-1.5 1.08-1.93-.4-.52-1.8-1.94-.79-2.26-.23-.79 1.39-2.25 2.66-1.6 4.59.4 1.18.98 2.57-.47 3.3-1.18.59-2.43-.2-3.47-.81-1.28-.76-1.98-2.34-1.4-3.48 1.68-3.3-.87-6.42.51-9.32-.98-.48-1.19-.25-1.36.07-.28.53-.12 1.57-1.1 1.36-.98-.2-.45-.99-.43-1.64.12-3.42.93-6.9-.68-10.2 1.12-2.61-.84-4.94-.66-7.46 1.7-3.14 2.7-6.49 3.18-10.02.03-.32.6-.57.93-.86z"/>
  <path class="st13" d="M51.5 95.44c.21-.23.42-.47.63-.7-.21.23-.42.47-.63.7z"/>
  <path class="st13" d="M50.83 96.81c.2-.24.41-.48.61-.72-.2.24-.41.48-.61.72z"/>
  <path class="st13" d="M50.14 98.16c.21-.24.42-.47.63-.71-.21.24-.42.48-.63.71z"/>
  <path class="st13" d="M49.43 100.16c.2-.23.41-.45.61-.68-.2.23-.41.46-.61.68z"/>
  <path class="st15" d="M63.7 47.81c.04-.96-.2-1.98.65-2.74-.01.96.26 1.99-.65 2.74z"/>
  <path class="st2" d="M38.58 82.75c1.06.34 1.94.97 1.68 2.13-.25 1.11-.24 2.74-1.87 2.81-1.54.07-1.16-1.35-1.19-2.27-.03-1.1-.11-2.3 1.38-2.67z"/>
  <path class="st5" d="M68.02 25.75c-.93-.03-1.49-.53-1.29-1.03.58-1.41 1-3.12 2.56-3.72.7-.27 1.62.71 1.55 1.46-.16 1.77-2.26 1.97-2.82 3.29z"/>
</svg>
